<svg width="65" height="65" viewBox="0 0 65 65" fill="none" xmlns="http://www.w3.org/2000/svg">
<path d="M29.8868 2.30827C31.4539 1.40353 33.3846 1.40353 34.9516 2.30827L57.2908 15.2058C58.8578 16.1105 59.8232 17.7826 59.8232 19.592V45.3871C59.8232 47.1965 58.8578 48.8686 57.2908 49.7733L34.9516 62.6708C33.3846 63.5756 31.4539 63.5756 29.8868 62.6708L7.54768 49.7733C5.98063 48.8686 5.01529 47.1965 5.01529 45.3871V19.592C5.01529 17.7825 5.98063 16.1105 7.54768 15.2058L29.8868 2.30827Z" stroke="url(#paint0_linear_663_97)" stroke-opacity="0.3" stroke-width="1.01296"/>
<path d="M30.6567 11.4829C31.7474 10.8532 33.0912 10.8532 34.1818 11.4829L49.7299 20.4596C50.8206 21.0893 51.4924 22.253 51.4924 23.5124V41.4658C51.4924 42.7252 50.8206 43.8889 49.7299 44.5186L34.1818 53.4953C33.0912 54.125 31.7474 54.125 30.6567 53.4953L15.1087 44.5186C14.018 43.8889 13.3461 42.7252 13.3461 41.4658V23.5124C13.3461 22.253 14.018 21.0893 15.1087 20.4596L30.6567 11.4829Z" fill="url(#paint1_linear_663_97)" fill-opacity="0.2"/>
<g clip-path="url(#clip0_663_97)">
<path fill-rule="evenodd" clip-rule="evenodd" d="M25.168 22.1528C23.7519 22.1528 22.7048 23.3922 22.7523 24.735C22.7968 26.0271 22.7389 27.6985 22.3182 29.062C21.8944 30.4285 21.1811 31.2947 20.0151 31.4064V32.6623C21.1811 32.7729 21.8954 33.6391 22.3171 35.0067C22.7389 36.3701 22.7968 38.0416 22.7513 39.3326C22.7048 40.6764 23.7519 41.9158 25.168 41.9158H39.6727C41.0888 41.9158 42.136 40.6764 42.0884 39.3326C42.044 38.0416 42.1018 36.3701 42.5225 35.0067C42.9453 33.6391 43.6575 32.7739 44.8235 32.6623V31.4064C43.6575 31.2947 42.9453 30.4285 42.5225 29.062C42.1018 27.6975 42.044 26.026 42.0884 24.735C42.136 23.3912 41.0878 22.1528 39.6727 22.1528H25.168ZM36.8332 34.3182C36.8332 36.1685 35.4532 37.2901 33.1636 37.2901H29.2656C29.154 37.2901 29.047 37.2458 28.9681 37.1669C28.8892 37.088 28.8449 36.981 28.8449 36.8694V27.1982C28.8451 27.0868 28.8896 26.9801 28.9684 26.9014C29.0473 26.8227 29.1542 26.7786 29.2656 26.7786H33.1419C35.0511 26.7786 36.3049 27.8122 36.3049 29.401C36.3049 30.5153 35.4615 31.5128 34.3875 31.6886V31.7464C35.8501 31.9067 36.8342 32.9197 36.8342 34.3182H36.8332ZM32.7398 28.111H30.5174V31.2513H32.3894C33.8365 31.2513 34.6345 30.6683 34.6345 29.6264C34.6345 28.6506 33.9481 28.111 32.7398 28.111ZM30.5174 32.4969V35.9566H32.8225C34.3285 35.9566 35.1276 35.3519 35.1276 34.2159C35.1276 33.0789 34.3068 32.4969 32.7253 32.4969H30.5174Z" fill="#7952B3"/>
</g>
<defs>
<linearGradient id="paint0_linear_663_97" x1="0.775879" y1="0.846191" x2="64.0626" y2="64.1329" gradientUnits="userSpaceOnUse">
<stop stop-color="white"/>
<stop offset="0.765625" stop-color="white" stop-opacity="0"/>
</linearGradient>
<linearGradient id="paint1_linear_663_97" x1="10.3955" y1="10.4653" x2="54.4431" y2="54.5129" gradientUnits="userSpaceOnUse">
<stop stop-color="white"/>
<stop offset="0.828125" stop-color="white" stop-opacity="0"/>
</linearGradient>
<clipPath id="clip0_663_97">
<rect width="24.8084" height="24.8084" fill="white" transform="translate(20.0151 20.0854)"/>
</clipPath>
</defs>
</svg>
