<svg width="64" height="64" viewBox="0 0 64 64" fill="none" xmlns="http://www.w3.org/2000/svg">
<path d="M29.1183 2.07438C30.6853 1.16964 32.616 1.16965 34.1831 2.07438L56.5222 14.9719C58.0893 15.8766 59.0546 17.5487 59.0546 19.3581V45.1532C59.0546 46.9627 58.0893 48.6347 56.5222 49.5394L34.1831 62.4369C32.616 63.3417 30.6853 63.3417 29.1183 62.4369L6.77912 49.5394C5.21207 48.6347 4.24673 46.9627 4.24673 45.1532V19.3581C4.24673 17.5487 5.21207 15.8766 6.77913 14.9719L29.1183 2.07438Z" stroke="url(#paint0_linear_666_80)" stroke-opacity="0.3" stroke-width="1.01296"/>
<path d="M30.3945 11.7559C31.4852 11.1262 32.829 11.1262 33.9196 11.7559L49.4677 20.7326C50.5583 21.3623 51.2302 22.526 51.2302 23.7854V41.7387C51.2302 42.9981 50.5583 44.1619 49.4677 44.7916L33.9196 53.7682C32.829 54.3979 31.4852 54.3979 30.3945 53.7682L14.8465 44.7916C13.7558 44.1619 13.0839 42.9981 13.0839 41.7387V23.7854C13.0839 22.526 13.7558 21.3623 14.8465 20.7326L30.3945 11.7559Z" fill="url(#paint1_linear_666_80)" fill-opacity="0.2"/>
<path d="M21.9544 38.9757C20.9964 38.9757 20.1255 38.1972 20.1255 37.2456C20.1255 36.294 20.9093 35.5154 21.9544 35.5154C22.9995 35.5154 23.7832 36.294 23.7832 37.2456C23.7832 38.1972 22.9124 38.9757 21.9544 38.9757ZM44.4233 29.5465C44.2491 28.1624 43.3782 27.0378 42.2461 26.1727L41.8106 25.8266L41.4623 26.2592C40.7655 27.0378 40.5043 28.4219 40.5914 29.4599C40.6784 30.2385 40.9398 31.0171 41.3752 31.6226C41.0268 31.7957 40.5914 31.9686 40.243 32.1417C39.4592 32.4012 38.6755 32.4877 37.8916 32.4877H15.3356L15.2485 33.0067C15.0744 34.6504 15.3356 36.3805 16.0323 37.9377L16.3807 38.5432V38.6297C18.4709 42.0899 22.2157 43.6471 26.3088 43.6471C34.1468 43.6471 40.5914 40.2733 43.6395 33.0067C45.6425 33.0932 47.6456 32.5742 48.6036 30.6711L48.8648 30.2385L48.4293 29.979C47.2972 29.287 45.7297 29.2004 44.4233 29.5465ZM33.1889 28.1624H29.7923V31.5361H33.1889V28.1624ZM33.1889 23.9234H29.7923V27.2973H33.1889V23.9234ZM33.1889 19.5981H29.7923V22.9719H33.1889V19.5981ZM37.3691 28.1624H33.9726V31.5361H37.3691V28.1624ZM24.7412 28.1624H21.3448V31.5361H24.7412V28.1624ZM29.0086 28.1624H25.6121V31.5361H29.0086V28.1624ZM20.5609 28.1624H17.1645V31.5361H20.5609V28.1624ZM29.0086 23.9234H25.6121V27.2973H29.0086V23.9234ZM24.7412 23.9234H21.3448V27.2973H24.7412V23.9234Z" fill="#0087C9"/>
<defs>
<linearGradient id="paint0_linear_666_80" x1="0.00732422" y1="0.612305" x2="63.294" y2="63.899" gradientUnits="userSpaceOnUse">
<stop stop-color="white"/>
<stop offset="0.765625" stop-color="white" stop-opacity="0"/>
</linearGradient>
<linearGradient id="paint1_linear_666_80" x1="10.1333" y1="10.7383" x2="54.1809" y2="54.7858" gradientUnits="userSpaceOnUse">
<stop stop-color="white"/>
<stop offset="0.828125" stop-color="white" stop-opacity="0"/>
</linearGradient>
</defs>
</svg>
