<svg width="50" height="54" viewBox="0 0 50 54" fill="none" xmlns="http://www.w3.org/2000/svg">
<rect width="50" height="54" rx="5" fill="#1A1A1A"/>
<path d="M8.29641 34.2291C8.16775 34.5879 8.08225 34.8279 8.03586 35.0194C7.99171 35.2017 7.99364 35.3 8.01325 35.3793C8.03287 35.4586 8.0761 35.5427 8.19651 35.6688C8.32306 35.8013 8.50473 35.95 8.77706 36.1719L19.8723 45.2123C20.2692 45.5357 20.5406 45.7558 20.7591 45.8842C20.9703 46.0083 21.0801 46.0148 21.1666 45.9854C21.2531 45.9561 21.343 45.8817 21.4651 45.6442C21.5915 45.3986 21.7209 45.0423 21.9096 44.5198L24.7009 36.788C24.8306 36.4287 24.9167 36.1884 24.9636 35.9966C25.0082 35.8141 25.0064 35.7156 24.9869 35.6361C24.9673 35.5566 24.9241 35.4723 24.8034 35.3459C24.6765 35.2131 24.4945 35.064 24.2215 34.8415L13.1118 25.7894C12.714 25.4652 12.442 25.2446 12.2231 25.1159C12.0113 24.9915 11.9014 24.9851 11.8149 25.0147C11.7283 25.0443 11.6383 25.1189 11.5164 25.3572C11.3903 25.6038 11.2613 25.9612 11.0733 26.4854L8.29641 34.2291Z" fill="url(#paint0_linear_590_120)" stroke="url(#paint1_linear_590_120)" stroke-width="0.69911"/>
<path d="M35.5492 34.9718C35.4425 35.2832 35.3713 35.4895 35.303 35.6414C35.2382 35.7854 35.189 35.8495 35.139 35.8907C35.089 35.9318 35.0224 35.963 34.8907 35.9808C34.7519 35.9995 34.5718 36 34.3001 36H9.74306C9.16884 36 8.77203 35.999 8.48614 35.9462C8.20597 35.8946 8.10644 35.8054 8.05275 35.7045C7.99906 35.6036 7.97187 35.4546 8.04263 35.1127C8.11485 34.7637 8.26844 34.3076 8.49178 33.6481L11.4082 25.0348C11.5143 24.7214 11.585 24.5138 11.6532 24.361C11.7178 24.2161 11.7671 24.1515 11.8171 24.1101C11.8672 24.0687 11.9341 24.0372 12.0663 24.0193C12.2057 24.0005 12.3866 24 12.6595 24H37.251C37.8276 24 38.2261 24.001 38.5131 24.0539C38.7945 24.1058 38.8941 24.1955 38.9478 24.2966C39.0013 24.3979 39.0283 24.5474 38.9561 24.8903C38.8824 25.2402 38.7266 25.6975 38.5001 26.3586L35.5492 34.9718Z" fill="url(#paint2_linear_590_120)" stroke="url(#paint3_linear_590_120)" stroke-width="0.69911"/>
<path d="M40.5492 19.9718C40.4424 20.2833 40.3713 20.4896 40.303 20.6414C40.2382 20.7854 40.1889 20.8495 40.139 20.8907C40.089 20.9318 40.0224 20.963 39.8908 20.9808C39.7519 20.9995 39.5718 21 39.3001 21H14.7431C14.1688 21 13.772 20.999 13.4862 20.9463C13.206 20.8946 13.1064 20.8054 13.0527 20.7045C12.9991 20.6036 12.9719 20.4546 13.0427 20.1127C13.1149 19.7637 13.2685 19.3077 13.4918 18.6481L16.4082 10.0348C16.5143 9.7214 16.585 9.51381 16.6532 9.36096C16.7178 9.21607 16.767 9.15151 16.8172 9.11016C16.8672 9.06873 16.9341 9.03719 17.0663 9.01934C17.2057 9.00052 17.3867 9 17.6595 9H42.2511C42.8276 9 43.2261 9.00097 43.5131 9.05392C43.7945 9.10584 43.8942 9.19547 43.9477 9.2967C44.0014 9.39793 44.0283 9.54735 43.9561 9.89032C43.8824 10.2402 43.7266 10.6976 43.5001 11.3586L40.5492 19.9718Z" fill="url(#paint4_linear_590_120)" stroke="url(#paint5_linear_590_120)" stroke-width="0.69911"/>
<defs>
<linearGradient id="paint0_linear_590_120" x1="19.3223" y1="43.2351" x2="22.2303" y2="29.5653" gradientUnits="userSpaceOnUse">
<stop stop-color="#FDFDFD"/>
<stop offset="1" stop-color="#FDFDFD" stop-opacity="0"/>
</linearGradient>
<linearGradient id="paint1_linear_590_120" x1="19.3223" y1="43.2351" x2="22.2303" y2="29.5653" gradientUnits="userSpaceOnUse">
<stop stop-color="#FDFDFD"/>
<stop offset="1" stop-color="#FDFDFD" stop-opacity="0"/>
</linearGradient>
<linearGradient id="paint2_linear_590_120" x1="7.24572" y1="36.3719" x2="15.9052" y2="14.2783" gradientUnits="userSpaceOnUse">
<stop stop-color="#2DC7ED"/>
<stop offset="1" stop-color="#538BF0" stop-opacity="0"/>
</linearGradient>
<linearGradient id="paint3_linear_590_120" x1="7.24572" y1="36.3719" x2="15.9052" y2="14.2783" gradientUnits="userSpaceOnUse">
<stop stop-color="#2DC7ED"/>
<stop offset="1" stop-color="#538BF0" stop-opacity="0"/>
</linearGradient>
<linearGradient id="paint4_linear_590_120" x1="12.2457" y1="21.3719" x2="20.9052" y2="-0.721635" gradientUnits="userSpaceOnUse">
<stop stop-color="#2DC7ED"/>
<stop offset="1" stop-color="#538BF0" stop-opacity="0"/>
</linearGradient>
<linearGradient id="paint5_linear_590_120" x1="12.2457" y1="21.3719" x2="20.9052" y2="-0.721635" gradientUnits="userSpaceOnUse">
<stop stop-color="#2DC7ED"/>
<stop offset="1" stop-color="#538BF0" stop-opacity="0"/>
</linearGradient>
</defs>
</svg>
