<svg width="64" height="65" viewBox="0 0 64 65" fill="none" xmlns="http://www.w3.org/2000/svg">
<path d="M29.5695 2.30827C31.1365 1.40353 33.0672 1.40353 34.6342 2.30827L56.9734 15.2058C58.5405 16.1105 59.5058 17.7826 59.5058 19.592V45.3871C59.5058 47.1965 58.5405 48.8686 56.9734 49.7733L34.6342 62.6708C33.0672 63.5756 31.1365 63.5756 29.5695 62.6708L7.23029 49.7733C5.66324 48.8686 4.6979 47.1965 4.6979 45.3871V19.592C4.6979 17.7825 5.66325 16.1105 7.2303 15.2058L29.5695 2.30827Z" stroke="url(#paint0_linear_663_106)" stroke-opacity="0.3" stroke-width="1.01296"/>
<path d="M30.3389 11.4829C31.4295 10.8532 32.7733 10.8532 33.864 11.4829L49.412 20.4596C50.5027 21.0893 51.1746 22.253 51.1746 23.5124V41.4658C51.1746 42.7252 50.5027 43.8889 49.412 44.5186L33.864 53.4953C32.7733 54.125 31.4295 54.125 30.3389 53.4953L14.7908 44.5186C13.7001 43.8889 13.0283 42.7252 13.0283 41.4658V23.5124C13.0283 22.253 13.7001 21.0893 14.7908 20.4596L30.3389 11.4829Z" fill="url(#paint1_linear_663_106)" fill-opacity="0.2"/>
<g clip-path="url(#clip0_663_106)">
<path fill-rule="evenodd" clip-rule="evenodd" d="M32.1015 20.5918C25.5279 20.5918 20.2036 25.9161 20.2036 32.4897C20.2036 37.7545 23.6094 42.2014 28.3388 43.7778C28.9337 43.8819 29.1568 43.525 29.1568 43.2127C29.1568 42.9301 29.1419 41.9931 29.1419 40.9967C26.1526 41.547 25.3792 40.268 25.1412 39.5987C25.0074 39.2566 24.4274 38.2007 23.9217 37.9181C23.5053 37.695 22.9104 37.1448 23.9068 37.1299C24.8438 37.115 25.5131 37.9925 25.7361 38.3494C26.8069 40.149 28.5173 39.6433 29.2014 39.331C29.3055 38.5576 29.6178 38.0371 29.9599 37.7396C27.3126 37.4422 24.5463 36.416 24.5463 31.8651C24.5463 30.5712 25.0074 29.5004 25.7659 28.6675C25.6469 28.3701 25.2305 27.1505 25.8849 25.5146C25.8849 25.5146 26.8813 25.2022 29.1568 26.7341C30.1086 26.4664 31.1199 26.3325 32.1313 26.3325C33.1426 26.3325 34.1539 26.4664 35.1057 26.7341C37.3812 25.1874 38.3777 25.5146 38.3777 25.5146C39.032 27.1505 38.6156 28.3701 38.4966 28.6675C39.2551 29.5004 39.7162 30.5563 39.7162 31.8651C39.7162 36.4309 36.935 37.4422 34.2878 37.7396C34.7191 38.1115 35.0909 38.8253 35.0909 39.9408C35.0909 41.5321 35.076 42.8111 35.076 43.2127C35.076 43.525 35.2991 43.8968 35.894 43.7778C38.2559 42.9804 40.3083 41.4624 41.7623 39.4374C43.2163 37.4125 43.9987 34.9826 43.9994 32.4897C43.9994 25.9161 38.6751 20.5918 32.1015 20.5918Z" fill="white"/>
</g>
<defs>
<linearGradient id="paint0_linear_663_106" x1="0.458496" y1="0.846191" x2="63.7452" y2="64.1329" gradientUnits="userSpaceOnUse">
<stop stop-color="white"/>
<stop offset="0.765625" stop-color="white" stop-opacity="0"/>
</linearGradient>
<linearGradient id="paint1_linear_663_106" x1="10.0776" y1="10.4653" x2="54.1252" y2="54.5129" gradientUnits="userSpaceOnUse">
<stop stop-color="white"/>
<stop offset="0.828125" stop-color="white" stop-opacity="0"/>
</linearGradient>
<clipPath id="clip0_663_106">
<rect width="23.7958" height="23.7958" fill="white" transform="translate(20.2036 20.5913)"/>
</clipPath>
</defs>
</svg>
