<svg width="64" height="65" viewBox="0 0 64 65" fill="none" xmlns="http://www.w3.org/2000/svg">
<path d="M29.3575 2.30827C30.9246 1.40353 32.8553 1.40353 34.4223 2.30827L56.7615 15.2058C58.3285 16.1105 59.2939 17.7826 59.2939 19.592V45.3871C59.2939 47.1965 58.3285 48.8686 56.7615 49.7733L34.4223 62.6708C32.8553 63.5756 30.9246 63.5756 29.3575 62.6708L7.01838 49.7733C5.45133 48.8686 4.48599 47.1965 4.48599 45.3871V19.592C4.48599 17.7825 5.45133 16.1105 7.01838 15.2058L29.3575 2.30827Z" stroke="url(#paint0_linear_663_112)" stroke-opacity="0.3" stroke-width="1.01296"/>
<path d="M30.127 11.4829C31.2176 10.8532 32.5614 10.8532 33.652 11.4829L49.2001 20.4596C50.2908 21.0893 50.9626 22.253 50.9626 23.5124V41.4658C50.9626 42.7252 50.2908 43.8889 49.2001 44.5186L33.652 53.4953C32.5614 54.125 31.2176 54.125 30.127 53.4953L14.5789 44.5186C13.4882 43.8889 12.8163 42.7252 12.8163 41.4658V23.5124C12.8163 22.253 13.4882 21.0893 14.5789 20.4596L30.127 11.4829Z" fill="url(#paint1_linear_663_112)" fill-opacity="0.2"/>
<g clip-path="url(#clip0_663_112)">
<path d="M33.1807 26.1451C32.558 24.6301 32.6453 22.9258 33.5445 21.5545L34.2168 20.5918C32.9734 22.9218 34.1573 25.7832 36.0609 27.2834C36.5704 27.6821 37.1382 27.9998 37.7445 28.2253C37.9071 28.2848 38.0915 28.3482 38.2601 28.3909C40.3878 28.9263 42.1219 28.5565 43.1541 27.0137C43.1224 27.0613 43.0817 27.1366 43.0301 27.2318C42.5701 28.0845 41.2236 30.5801 37.3192 29.7968C37.2448 29.7819 37.1734 29.7571 37.102 29.7343L37.0386 29.7125L36.9929 29.6977C36.9719 29.6904 36.9508 29.6834 36.9295 29.6768C36.8717 29.6569 36.8141 29.6361 36.757 29.6144C35.1855 29.0155 33.838 27.7543 33.1807 26.1451V26.1451Z" fill="#0868AC"/>
<path d="M28.0436 23.5324C26.5197 25.8078 26.603 28.8547 27.7917 31.262C28.0116 31.71 28.2641 32.1411 28.5473 32.552C28.7545 32.8623 28.9825 33.2063 29.2492 33.4463C29.3593 33.5722 29.4743 33.6942 29.5913 33.8141L29.6587 33.8835L29.6815 33.9063C29.7999 34.026 29.9212 34.1427 30.0454 34.2563L30.0464 34.2573L30.0484 34.2593C30.1983 34.3949 30.352 34.5262 30.5094 34.6529L30.5491 34.6847C30.6879 34.7957 30.8297 34.9048 30.9754 35.0089L30.9814 35.0128L30.9883 35.0178C31.0349 35.0515 31.0825 35.0842 31.1301 35.116L31.1827 35.1516C31.2138 35.1722 31.2445 35.1934 31.2749 35.2151C31.379 35.2845 31.4841 35.3509 31.5911 35.4164L31.6209 35.4332L31.6358 35.4431C31.7506 35.5116 31.8666 35.5781 31.9838 35.6424L32.0145 35.6583L32.0542 35.6801C32.1057 35.7079 32.1573 35.7366 32.2108 35.7634L32.2406 35.7783C32.3939 35.8564 32.5493 35.9304 32.7066 36.0004L32.7383 36.0133C32.8859 36.0782 33.035 36.1397 33.1855 36.1977L33.2152 36.2086C33.3173 36.2482 33.4195 36.2839 33.5226 36.3196L33.5741 36.3375L33.6614 36.3662C33.7001 36.3781 33.7387 36.392 33.7764 36.4049C33.8845 36.4426 33.9925 36.4793 34.1056 36.4991C41.9721 37.8515 43.7885 31.5654 43.7885 31.5654C42.1515 34.0124 38.9807 35.1804 35.5978 34.2682C35.448 34.2273 35.2992 34.1826 35.1516 34.1344C35.1119 34.1225 35.0723 34.1086 35.0326 34.0947L35.0177 34.0898C34.9133 34.0547 34.8095 34.0177 34.7064 33.9787L34.7034 33.9767C34.5324 33.912 34.3631 33.8426 34.1958 33.7685L34.1403 33.7437C33.9453 33.6556 33.7535 33.5607 33.5652 33.4592L33.5236 33.4374L33.4046 33.3739C33.296 33.3132 33.1885 33.2504 33.0824 33.1855C32.8726 33.0574 32.6676 32.9218 32.4676 32.779C32.3232 32.6748 32.1814 32.567 32.0423 32.4558L32.0076 32.427C31.9873 32.4106 31.9671 32.3941 31.9471 32.3775C30.4658 31.1639 29.2919 29.5051 28.7347 27.6252C28.1497 25.674 28.2756 23.4848 29.2889 21.708L28.0436 23.5324Z" fill="#0868AC"/>
<path d="M21.5034 26.181C19.3974 29.3241 19.6592 33.414 21.2684 36.7533C21.2981 36.8178 21.3308 36.8812 21.3626 36.9437L21.3864 36.9913L21.4161 37.0498C21.441 37.1018 21.4675 37.153 21.4954 37.2035L21.5083 37.2282L21.5777 37.3571L21.5926 37.3839C21.6422 37.4751 21.6937 37.5663 21.7463 37.6576L21.7631 37.6873C21.8426 37.8259 21.9256 37.9624 22.012 38.0968L22.0298 38.1265L22.0883 38.2187C22.1716 38.3476 22.2569 38.4775 22.3461 38.6054V38.6064C22.3482 38.6095 22.3506 38.6125 22.3531 38.6153L22.3769 38.6481L22.3967 38.6758C22.474 38.7849 22.5524 38.894 22.6327 39.001L22.7219 39.118C22.9162 39.3699 23.1173 39.6165 23.3247 39.8577L23.3307 39.8646L23.3356 39.8696L23.3426 39.8775C23.5529 40.1145 23.7705 40.3449 23.995 40.5686L24.0247 40.5983L24.0951 40.6677C24.2075 40.7776 24.3219 40.8853 24.4382 40.991L24.4709 41.0207L24.4967 41.0425C24.6208 41.1533 24.7464 41.2624 24.8734 41.3697L24.929 41.4163C25.0132 41.4857 25.0985 41.5551 25.1848 41.6225L25.3206 41.7306C25.4158 41.803 25.511 41.8744 25.6071 41.9438L25.623 41.9557L25.7122 42.0211L25.74 42.0409C25.8273 42.1044 25.9155 42.1639 26.0047 42.2234L26.0186 42.2333C26.0586 42.2602 26.0983 42.2876 26.1376 42.3156C26.3031 42.4242 26.4707 42.5297 26.6403 42.6319L26.6938 42.6636C26.8439 42.7523 26.9957 42.8382 27.1489 42.9214L27.2015 42.9501L27.26 42.9819C27.3185 43.0136 27.376 43.0453 27.4355 43.0761L27.4602 43.088L27.49 43.1028L27.5237 43.1197C27.5435 43.1296 27.5643 43.1395 27.5852 43.1514C27.7081 43.2119 27.8311 43.2714 27.956 43.3299L28.0026 43.3507L28.0343 43.3656C28.3441 43.5067 28.6593 43.6357 28.9792 43.7523L28.9891 43.7552L29.0308 43.7711C29.2568 43.8524 29.4849 43.9278 29.7149 43.9972C29.8299 44.0358 29.9459 44.0735 30.0649 44.0963C40.2545 46.0258 43.2141 37.7408 43.2141 37.7408C40.7284 41.102 36.3162 41.9894 32.1351 41.0019C31.9778 40.9637 31.8223 40.9184 31.6691 40.866L31.5521 40.8293C31.4014 40.7818 31.2517 40.7302 31.103 40.6776L31.0415 40.6548C30.9077 40.6053 30.7768 40.5557 30.6449 40.5021L30.5339 40.4565C30.3901 40.3971 30.2473 40.3366 30.1065 40.2721L30.0609 40.2523C29.9266 40.1899 29.793 40.1258 29.6604 40.0599L29.6197 40.0381C29.5985 40.028 29.5773 40.0178 29.5563 40.0074L29.3441 39.8954L29.2767 39.8597C29.2546 39.8476 29.2324 39.8357 29.2102 39.824L29.0912 39.7585C28.9782 39.6961 28.8672 39.6296 28.7561 39.5632L28.7135 39.5384L28.6441 39.4988C28.4715 39.3923 28.3009 39.2825 28.1325 39.1696L28.0898 39.1398C27.6667 38.8577 27.2611 38.5501 26.8753 38.2187C26.7574 38.1191 26.641 38.0176 26.5263 37.9144L26.5104 37.8995C26.3597 37.7608 26.2116 37.6194 26.0662 37.4751C25.9822 37.3922 25.8996 37.3079 25.8183 37.2223L25.7846 37.1886C25.6562 37.0544 25.5306 36.9175 25.4079 36.7781L25.4019 36.7722L25.3999 36.7692C25.2948 36.6502 25.1917 36.5273 25.0906 36.4043L25.0093 36.3042C24.9055 36.1755 24.804 36.0449 24.7049 35.9125C24.6176 35.7936 24.5314 35.6766 24.4471 35.5566C22.127 32.2708 21.2932 27.7377 23.1482 24.0156L21.5034 26.181Z" fill="#0868AC"/>
</g>
<defs>
<linearGradient id="paint0_linear_663_112" x1="0.246582" y1="0.846191" x2="63.5333" y2="64.1329" gradientUnits="userSpaceOnUse">
<stop stop-color="white"/>
<stop offset="0.765625" stop-color="white" stop-opacity="0"/>
</linearGradient>
<linearGradient id="paint1_linear_663_112" x1="9.86572" y1="10.4653" x2="53.9133" y2="54.5129" gradientUnits="userSpaceOnUse">
<stop stop-color="white"/>
<stop offset="0.828125" stop-color="white" stop-opacity="0"/>
</linearGradient>
<clipPath id="clip0_663_112">
<rect width="23.7958" height="23.7958" fill="white" transform="translate(19.9917 20.5913)"/>
</clipPath>
</defs>
</svg>
