<svg width="64" height="65" viewBox="0 0 64 65" fill="none" xmlns="http://www.w3.org/2000/svg">
<path d="M29.2721 2.30827C30.8391 1.40353 32.7698 1.40353 34.3369 2.30827L56.676 15.2058C58.2431 16.1105 59.2084 17.7826 59.2084 19.592V45.3871C59.2084 47.1965 58.2431 48.8686 56.676 49.7733L34.3369 62.6708C32.7698 63.5756 30.8391 63.5756 29.2721 62.6708L6.93293 49.7733C5.36588 48.8686 4.40054 47.1965 4.40054 45.3871V19.592C4.40054 17.7825 5.36588 16.1105 6.93293 15.2058L29.2721 2.30827Z" stroke="url(#paint0_linear_717_91)" stroke-opacity="0.3" stroke-width="1.01296"/>
<path d="M30.042 11.4829C31.1327 10.8532 32.4764 10.8532 33.5671 11.4829L49.1151 20.4596C50.2058 21.0893 50.8777 22.253 50.8777 23.5124V41.4658C50.8777 42.7252 50.2058 43.8889 49.1151 44.5186L33.5671 53.4953C32.4764 54.125 31.1327 54.125 30.042 53.4953L14.4939 44.5186C13.4033 43.8889 12.7314 42.7252 12.7314 41.4658V23.5124C12.7314 22.253 13.4033 21.0893 14.4939 20.4596L30.042 11.4829Z" fill="url(#paint1_linear_717_91)" fill-opacity="0.2"/>
<path d="M42.2319 22.536C43.2256 22.7672 44.1285 23.2875 44.8267 24.0313C45.2113 24.4338 45.5453 24.8819 45.8212 25.3654C45.8341 25.418 44.0307 26.6296 42.9369 27.3054C42.8972 27.3323 42.7397 27.1607 42.5611 26.8969C42.3613 26.5534 42.0777 26.2662 41.7368 26.0621C41.3959 25.858 41.0089 25.7436 40.6118 25.7296C39.3546 25.6433 38.5446 26.3016 38.5504 27.4023C38.5395 27.6727 38.6012 27.9411 38.729 28.1797C39.0056 28.7516 39.5192 29.0948 41.1324 29.794C44.1019 31.0721 45.3765 31.9149 46.1632 33.1125C46.6079 33.8692 46.8818 34.714 46.9657 35.5876C47.0496 36.4613 46.9414 37.3427 46.6488 38.1702C46.2467 39.0777 45.609 39.861 44.8019 40.4388C43.9948 41.0166 43.0478 41.3678 42.0592 41.456C41.0083 41.5766 39.9464 41.5656 38.8982 41.4233C37.2927 41.1595 35.8136 40.3889 34.6775 39.2242C34.2481 38.7408 33.8847 38.2027 33.5966 37.6239C33.7177 37.5338 33.8453 37.4527 33.9783 37.3812C34.1627 37.2761 34.8607 36.8746 35.519 36.4929L36.7143 35.7925L36.9641 36.1567C37.3848 36.7584 37.9204 37.2709 38.5399 37.6648C39.1656 38.008 39.8743 38.1706 40.587 38.1345C41.2997 38.0985 41.9884 37.8651 42.5763 37.4605C42.8795 37.165 43.069 36.7721 43.1117 36.3509C43.1544 35.9296 43.0475 35.5067 42.8097 35.1564C42.4875 34.6953 41.8292 34.3078 39.9581 33.4965C38.4909 33.0018 37.1546 32.1818 36.049 31.0978C35.5225 30.4978 35.1336 29.7899 34.9097 29.0236C34.7442 28.1507 34.7198 27.2569 34.8374 26.3763C35.057 25.3629 35.5829 24.4416 36.3437 23.7371C37.1046 23.0327 38.0636 22.5791 39.0908 22.438C40.1369 22.313 41.1957 22.346 42.2319 22.536V22.536ZM32.4935 24.2671L32.5064 25.9642H27.102V41.3113H23.2909V25.9678H17.8865V24.3009C17.8721 23.7301 17.8877 23.1589 17.9332 22.5897C17.9531 22.5629 21.2389 22.55 25.2227 22.557L32.4725 22.5769L32.4935 24.2671Z" fill="#007ACC"/>
<defs>
<linearGradient id="paint0_linear_717_91" x1="0.161133" y1="0.846191" x2="63.4478" y2="64.1329" gradientUnits="userSpaceOnUse">
<stop stop-color="white"/>
<stop offset="0.765625" stop-color="white" stop-opacity="0"/>
</linearGradient>
<linearGradient id="paint1_linear_717_91" x1="9.78076" y1="10.4653" x2="53.8283" y2="54.5129" gradientUnits="userSpaceOnUse">
<stop stop-color="white"/>
<stop offset="0.828125" stop-color="white" stop-opacity="0"/>
</linearGradient>
</defs>
</svg>
