<svg width="65" height="64" viewBox="0 0 65 64" fill="none" xmlns="http://www.w3.org/2000/svg">
<path d="M29.9991 2.07438C31.5662 1.16964 33.4969 1.16965 35.0639 2.07438L57.4031 14.9719C58.9701 15.8766 59.9355 17.5487 59.9355 19.3581V45.1532C59.9355 46.9627 58.9701 48.6347 57.4031 49.5394L35.0639 62.4369C33.4969 63.3417 31.5662 63.3417 29.9991 62.4369L7.65998 49.5394C6.09293 48.6347 5.12759 46.9627 5.12759 45.1532V19.3581C5.12759 17.5487 6.09293 15.8766 7.65998 14.9719L29.9991 2.07438Z" stroke="url(#paint0_linear_666_83)" stroke-opacity="0.3" stroke-width="1.01296"/>
<path d="M30.7686 11.2491C31.8592 10.6194 33.203 10.6194 34.2936 11.2491L49.8417 20.2257C50.9324 20.8554 51.6042 22.0192 51.6042 23.2785V41.2319C51.6042 42.4913 50.9324 43.655 49.8417 44.2847L34.2936 53.2614C33.203 53.8911 31.8592 53.8911 30.7686 53.2614L15.2205 44.2847C14.1298 43.655 13.458 42.4913 13.458 41.2319V23.2785C13.458 22.0191 14.1298 20.8554 15.2205 20.2257L30.7686 11.2491Z" fill="url(#paint1_linear_666_83)" fill-opacity="0.2"/>
<path d="M25.303 41.5068H24.2286C24.1906 39.2005 24.086 37.0323 23.9149 35.0005H23.9053L22.2695 41.5068H21.4514L19.8253 35.0005H19.816C19.6954 36.9512 19.6193 39.12 19.5878 41.5068H18.6084C18.6715 38.6044 18.8301 35.8832 19.0837 33.3432H20.4154L21.9653 39.3418H21.9748L23.5343 33.3432H24.8085C25.0876 36.3183 25.2524 39.0397 25.303 41.5068ZM29.9628 35.4837C29.5254 38.5027 28.9482 40.6963 28.2319 42.0655C27.6738 43.1195 27.0623 43.6471 26.3964 43.6471C26.2189 43.6471 25.9999 43.579 25.7403 43.4438V42.7159C25.8672 42.7391 26.0161 42.7523 26.1872 42.7523C26.4982 42.7523 26.7482 42.6435 26.9387 42.4254C27.1667 42.1598 27.2807 41.8612 27.2807 41.5309C27.2807 41.3043 27.1919 40.8412 27.0145 40.14L25.8354 35.4835H26.891L27.7373 38.9661C27.9275 39.7568 28.0068 40.3089 27.9751 40.6234C28.4378 39.0516 28.7611 37.3377 28.9452 35.4831L29.9628 35.4837Z" fill="#F7F7F7"/>
<path d="M44.2651 41.5068H41.213V33.3432H42.2398V40.5019H44.2651V41.5068ZM40.4141 41.7042L39.234 40.9634C39.3386 40.8542 39.4387 40.7359 39.5288 40.5989C40.0304 39.8495 40.2806 38.7414 40.2806 37.2736C40.2806 34.5728 39.4472 33.2218 37.7798 33.2218C36.9621 33.2218 36.3243 33.5645 35.8681 34.2502C35.3669 35.0001 35.1167 36.1042 35.1167 37.564C35.1167 38.9991 35.3385 40.0518 35.7822 40.7196C36.1881 41.3244 36.7999 41.6273 37.6182 41.6273C37.9234 41.6273 38.2035 41.5798 38.4587 41.4839L39.9951 42.6214L40.4141 41.7042ZM36.5911 39.8733C36.3312 39.3416 36.2012 38.4876 36.2012 37.3103C36.2012 35.2548 36.6922 34.2259 37.6753 34.2259C38.1892 34.2259 38.5658 34.472 38.8067 34.963C39.0662 35.4956 39.1968 36.3419 39.1968 37.5028C39.1968 39.5752 38.7053 40.6116 37.7229 40.6116C37.2088 40.6118 36.8321 40.3665 36.5911 39.8733ZM34.6693 39.2441C34.6693 39.9364 34.4696 40.5043 34.0705 40.9492C33.6711 41.3923 33.1354 41.6143 32.4641 41.6143C31.8363 41.6143 31.2275 41.3593 30.6383 40.8518L30.9142 40.1508C31.4212 40.4737 31.8802 40.6342 32.2924 40.6342C32.6792 40.6342 32.9815 40.5252 33.2007 40.309C33.4198 40.0919 33.5504 39.7875 33.5504 39.4026C33.5504 38.9175 33.2845 38.5029 32.7965 38.1557C32.3466 37.8416 31.4468 37.1846 31.4468 37.1846C30.959 36.7326 30.7149 36.2473 30.7149 35.4478C30.7149 34.7861 30.8969 34.252 31.2613 33.8456C31.6261 33.4378 32.0968 33.2344 32.6738 33.2344C33.2697 33.2344 33.8114 33.4374 34.2993 33.8393L34.0518 34.5406C33.6345 34.3151 33.2226 34.2024 32.8162 34.2024C32.4872 34.2024 32.233 34.303 32.0564 34.505C31.8782 34.7061 31.7683 34.9636 31.7683 35.2794C31.7683 35.762 32.0399 36.1819 32.5411 36.5359C32.9971 36.8506 33.9193 37.5189 33.9193 37.5189C34.4195 37.9701 34.6693 38.451 34.6693 39.2441Z" fill="#F7F7F7"/>
<path d="M45.5541 30.6089C44.9333 30.5888 44.4526 30.6683 44.0492 30.8853C43.9327 30.9445 43.7476 30.9445 43.7314 31.1317C43.7942 31.2109 43.8015 31.3387 43.8562 31.448C43.9491 31.6452 44.1113 31.9105 44.2593 32.0489C44.4219 32.2073 44.5851 32.3642 44.7562 32.5023C45.0579 32.7397 45.3998 32.8777 45.6938 33.1143C45.8651 33.2519 46.0354 33.4299 46.2069 33.578C46.2911 33.6569 46.3452 33.7849 46.4546 33.8344V33.8043C46.3997 33.7155 46.3842 33.5872 46.3304 33.4885L46.0974 33.2027C45.8724 32.8184 45.5927 32.4828 45.291 32.2071C45.0427 31.9896 44.4996 31.6938 44.3988 31.33L44.3831 31.3099C44.5537 31.2895 44.7562 31.2109 44.9183 31.1505C45.1822 31.0619 45.4229 31.0821 45.6936 30.9936C45.8182 30.9539 45.9417 30.9043 46.0667 30.8556V30.7666C45.9263 30.5888 45.8263 30.3528 45.6787 30.1848C45.2837 29.7511 44.8485 29.3267 44.3988 28.9717C44.158 28.7739 43.8482 28.6466 43.5918 28.4784C43.4994 28.419 43.3437 28.3897 43.2893 28.291C43.1502 28.0739 43.0719 27.7882 42.971 27.5313C42.7467 26.9893 42.5289 26.3878 42.3355 25.8146C42.1955 25.4301 42.1104 25.0462 41.9397 24.6906C41.1404 23.014 40.2723 21.9984 38.9381 21.0017C38.6514 20.7942 38.3102 20.7058 37.9458 20.5969L37.3638 20.5579C37.2397 20.4887 37.1153 20.301 37.007 20.2123C36.5643 19.8574 35.4246 19.0883 35.0991 20.1038C34.8893 20.7456 35.4093 21.3767 35.5879 21.7022C35.7197 21.9283 35.8905 22.1854 35.9827 22.442C36.0373 22.6097 36.0527 22.7877 36.1073 22.9649C36.2314 23.399 36.3475 23.8818 36.5107 24.2869C36.5959 24.4933 36.6886 24.7104 36.7974 24.8973C36.8597 25.0066 36.9682 25.0549 36.9918 25.2331C36.8837 25.4296 36.8751 25.7261 36.813 25.9727C36.534 27.0872 36.643 28.4678 37.0385 29.2869C37.1623 29.5335 37.4575 30.0764 37.8524 29.8682C38.2021 29.6908 38.1246 29.1287 38.2251 28.6357C38.2481 28.5167 38.233 28.4385 38.2795 28.3604V28.3796C38.3877 28.6556 38.4969 28.9215 38.5972 29.1981C38.8378 29.6811 39.2568 30.1844 39.6058 30.5189C39.7917 30.6974 39.9388 31.0026 40.1716 31.1116V31.0821H40.1562C40.1091 30.9936 40.0402 30.9539 39.9783 30.8853C39.8383 30.7077 39.6835 30.4906 39.5749 30.2937C39.2497 29.741 38.9619 29.1293 38.7065 28.498C38.5816 28.1917 38.4738 27.8569 38.3732 27.5511C38.3262 27.4331 38.3262 27.2551 38.2484 27.1957C38.1317 27.4125 37.9616 27.6002 37.8765 27.8658C37.7289 28.2906 37.7135 28.8131 37.6586 29.3565L37.6282 29.3756C37.3811 29.2966 37.2952 28.9717 37.2013 28.6957C36.9689 27.9949 36.9299 26.8702 37.1315 26.0617C37.1855 25.8549 37.4191 25.2038 37.3259 25.0069C37.2792 24.8181 37.1238 24.7106 37.0387 24.5619C36.9387 24.375 36.829 24.1385 36.7592 23.931C36.5733 23.3788 36.4795 22.7671 36.2792 22.2152C36.1856 21.9581 36.023 21.6919 35.8914 21.455C35.7435 21.189 35.581 21.0015 35.4641 20.6859C35.4255 20.5775 35.3713 20.4001 35.4334 20.282C35.4485 20.2027 35.48 20.1732 35.5419 20.1534C35.6424 20.0454 35.9296 20.1827 36.0303 20.2421C36.3179 20.39 36.5583 20.5281 36.7983 20.7351C36.9069 20.834 37.0233 21.0215 37.1626 21.0709H37.3259C37.5735 21.1396 37.8528 21.0899 38.086 21.1791C38.4969 21.3471 38.8692 21.5934 39.203 21.8593C40.2189 22.6786 41.0567 23.8428 41.6223 25.2331C41.715 25.4597 41.7546 25.6672 41.8392 25.9035C42.0026 26.3873 42.2046 26.8805 42.3668 27.3539C42.5298 27.8173 42.6851 28.2904 42.9178 28.6754C43.0339 28.8823 43.5002 28.9909 43.7094 29.0994C43.864 29.1879 44.1049 29.2666 44.2443 29.375C44.5083 29.5818 44.7712 29.8192 45.0193 30.0465C45.1427 30.1648 45.531 30.4114 45.5541 30.6089ZM37.6423 22.0372C37.5352 22.0358 37.4285 22.0525 37.3248 22.087V22.1068H37.3398C37.4023 22.2644 37.5109 22.3737 37.5883 22.5112C37.6508 22.6694 37.705 22.8263 37.7662 22.9841L37.7812 22.9645C37.8906 22.8661 37.945 22.7082 37.945 22.4713C37.8979 22.4017 37.8906 22.3335 37.8514 22.2644C37.8057 22.1656 37.705 22.1165 37.6423 22.0372Z" fill="#F7F7F7"/>
<path d="M46.2928 41.5055H46.4535V40.5054H46.2125L46.0158 41.188L45.8022 40.5054H45.5701V41.5055H45.7219V40.7446H45.7304L45.9542 41.5055H46.0698L46.2928 40.7446V41.5055ZM44.9983 41.5055H45.1683V40.6749H45.3909V40.5051H44.7664V40.6749H44.9978L44.9983 41.5055Z" fill="#F7F7F7"/>
<defs>
<linearGradient id="paint0_linear_666_83" x1="0.888184" y1="0.612305" x2="64.1749" y2="63.899" gradientUnits="userSpaceOnUse">
<stop stop-color="white"/>
<stop offset="0.765625" stop-color="white" stop-opacity="0"/>
</linearGradient>
<linearGradient id="paint1_linear_666_83" x1="10.5073" y1="10.2314" x2="54.5549" y2="54.279" gradientUnits="userSpaceOnUse">
<stop stop-color="white"/>
<stop offset="0.828125" stop-color="white" stop-opacity="0"/>
</linearGradient>
</defs>
</svg>
