<svg width="51" height="54" viewBox="0 0 51 54" fill="none" xmlns="http://www.w3.org/2000/svg">
<rect width="50.4773" height="54" rx="5" fill="#1A1A1A"/>
<path d="M41.3864 9.09082L31.5957 12.5565L30.3039 11.2857L25.2046 10.5348L20.1053 11.2857L18.8815 12.5565L9.09082 9.09082L12.3544 15.9066L9.09082 23.531L11.6745 30.058L14.2581 35.8341L16.8417 38.7221L21.1252 43.8051L25.4086 46L29.692 43.8051L33.9754 38.7221L36.559 35.8341L39.1427 30.058L41.3864 23.531L38.1228 15.9066L41.3864 9.09082ZM35.4712 27.8631L33.7714 31.502L32.0716 33.6969L29.488 40.2239L26.9044 42.4188H23.5048L20.9212 40.2239L18.3375 33.6969L16.6378 31.502L14.938 27.8631V20.643L20.9212 19.8921L25.2046 22.087L29.488 19.8921L35.4712 20.643V27.8631Z" fill="#8844EE"/>
<path d="M28.6722 27.863L30.3719 28.6138V27.4009L31.1878 27.1698H32.0717L33.7715 24.9749V23.5309L29.488 24.9749L28.6722 27.863ZM25.2046 30.0579L23.5049 29.307L21.8051 36.5271L22.689 38.722L23.5049 40.166H24.3888L25.2046 40.8591L26.0885 40.166H26.9724L27.7883 38.722L28.6722 36.5271L26.9724 29.307L25.2046 30.0579ZM20.9892 24.9749L16.7058 23.5309V24.9749L18.4056 27.1698H19.2895L20.1053 27.4009V28.6138L21.8051 27.863L20.9892 24.9749Z" fill="#8844EE"/>
</svg>
