<svg width="64" height="65" viewBox="0 0 64 65" fill="none" xmlns="http://www.w3.org/2000/svg">
<path d="M29.7365 2.20182C31.3035 1.29709 33.2342 1.29709 34.8012 2.20182L57.1404 15.0993C58.7075 16.0041 59.6728 17.6761 59.6728 19.4856V45.2806C59.6728 47.0901 58.7075 48.7621 57.1404 49.6669L34.8012 62.5644C33.2342 63.4691 31.3035 63.4691 29.7365 62.5644L7.39729 49.6669C5.83024 48.7621 4.86489 47.0901 4.86489 45.2806V19.4856C4.86489 17.6761 5.83024 16.0041 7.39729 15.0993L29.7365 2.20182Z" stroke="url(#paint0_linear_663_87)" stroke-opacity="0.3" stroke-width="1.01296"/>
<path d="M30.5063 11.3765C31.597 10.7468 32.9408 10.7468 34.0314 11.3765L49.5795 20.3532C50.6702 20.9829 51.342 22.1466 51.342 23.406V41.3593C51.342 42.6187 50.6702 43.7825 49.5795 44.4122L34.0314 53.3888C32.9408 54.0185 31.597 54.0185 30.5063 53.3888L14.9583 44.4122C13.8676 43.7825 13.1957 42.6187 13.1957 41.3593V23.406C13.1957 22.1466 13.8676 20.9829 14.9583 20.3532L30.5063 11.3765Z" fill="url(#paint1_linear_663_87)" fill-opacity="0.2"/>
<g clip-path="url(#clip0_663_87)">
<path d="M44.1659 32.0746C44.1659 30.4981 42.1919 29.004 39.1648 28.0779C39.8638 24.9934 39.5535 22.5385 38.1852 21.7522C37.8537 21.5665 37.4785 21.473 37.0986 21.4815V22.5622C37.3217 22.5622 37.5011 22.6069 37.6518 22.6892C38.3112 23.0679 38.5977 24.5076 38.3746 26.3607C38.3211 26.8167 38.2338 27.2966 38.1267 27.7864C37.1131 27.5421 36.0843 27.3656 35.0472 27.258C34.4293 26.4056 33.7553 25.5954 33.0295 24.8328C34.6109 23.3634 36.0952 22.5583 37.1045 22.5583V21.4766C35.77 21.4766 34.024 22.4274 32.2581 24.0763C30.4932 22.4383 28.7462 21.4964 27.4127 21.4964V22.5771C28.4171 22.5771 29.9063 23.3782 31.4877 24.8377C30.8085 25.5516 30.1294 26.3607 29.4839 27.258C28.4447 27.3644 27.414 27.5426 26.3994 27.7914C26.2873 27.3065 26.205 26.8366 26.1465 26.3854C25.9185 24.5313 26.2001 23.0917 26.8555 22.709C27.0002 22.6217 27.1896 22.5821 27.4127 22.5821V21.5013C27.0062 21.5013 26.6363 21.5886 26.3171 21.772C24.9538 22.5583 24.6484 25.0073 25.3514 28.0829C22.3343 29.0149 20.3701 30.5031 20.3701 32.0746C20.3701 33.6511 22.3442 35.1453 25.3712 36.0703C24.6722 39.1559 24.9825 41.6108 26.3508 42.3961C26.6661 42.5805 27.0349 42.6677 27.4414 42.6677C28.776 42.6677 30.522 41.7169 32.2878 40.068C34.0527 41.707 35.7987 42.6479 37.1333 42.6479C37.5161 42.656 37.8942 42.5622 38.2289 42.3762C39.5922 41.591 39.8975 39.142 39.1946 36.0664C42.2018 35.1403 44.1659 33.6461 44.1659 32.0746ZM37.8501 28.8394C37.6617 29.4877 37.4434 30.1269 37.1957 30.7549C36.7904 29.9665 36.3453 29.1991 35.8622 28.4557C36.5513 28.5578 37.2156 28.6837 37.8511 28.8394H37.8501ZM35.6292 34.0051C35.2514 34.6594 34.8628 35.2811 34.4602 35.8582C33.0049 35.9864 31.5413 35.9881 30.0857 35.8631C29.2509 34.6705 28.5207 33.4079 27.9035 32.0895C28.5198 30.7679 29.2468 29.5009 30.0768 28.302C31.5317 28.1735 32.995 28.1715 34.4503 28.296C34.8528 28.8731 35.2465 29.4898 35.6242 30.1402C35.9931 30.7748 36.3282 31.4192 36.6336 32.0697C36.3248 32.728 35.9897 33.3736 35.6292 34.0051V34.0051ZM37.1957 33.3745C37.4575 34.0239 37.6816 34.6743 37.865 35.3049C37.2304 35.4606 36.5602 35.5914 35.8671 35.6926C36.3482 34.9424 36.7917 34.1688 37.1957 33.3745V33.3745ZM32.2779 38.5501C31.8268 38.0841 31.3757 37.5655 30.9295 36.9974C31.3658 37.0172 31.8119 37.0321 32.2631 37.0321C32.7191 37.0321 33.1703 37.0222 33.6115 36.9974C33.1752 37.5655 32.7241 38.0841 32.2779 38.5501ZM28.6689 35.6926C28.0004 35.5957 27.3367 35.468 26.68 35.3099C26.8594 34.6842 27.0825 34.0388 27.3344 33.3943C27.5336 33.781 27.7429 34.1696 27.9709 34.5583C28.1989 34.946 28.4309 35.3247 28.6689 35.6926ZM32.2531 25.5992C32.7043 26.0652 33.1554 26.5837 33.6016 27.1519C33.1653 27.132 32.7191 27.1172 32.268 27.1172C31.8119 27.1172 31.3608 27.1271 30.9196 27.1519C31.3558 26.5837 31.807 26.0652 32.2531 25.5992ZM28.6639 28.4567C28.1829 29.2052 27.7395 29.9772 27.3353 30.7698C27.0807 30.1377 26.8574 29.4934 26.6661 28.8394C27.3006 28.6887 27.9709 28.5578 28.6639 28.4567ZM24.2746 34.5286C22.5573 33.7968 21.4469 32.8361 21.4469 32.0746C21.4469 31.3132 22.5573 30.3474 24.2746 29.6207C24.691 29.4412 25.1471 29.2806 25.6181 29.1309C25.8947 30.0807 26.2586 31.0702 26.7087 32.0845C26.2837 33.0385 25.9243 34.0204 25.633 35.0233C25.1724 34.8807 24.719 34.7156 24.2746 34.5286V34.5286ZM26.8842 41.4591C26.2249 41.0823 25.9383 39.6407 26.1614 37.7886C26.215 37.3325 26.3022 36.8516 26.4093 36.3618C27.3591 36.5948 28.3972 36.7743 29.4889 36.8913C30.1067 37.7437 30.7808 38.5539 31.5066 39.3165C29.9251 40.7859 28.4409 41.591 27.4315 41.591C27.2411 41.593 27.0531 41.5481 26.8842 41.4601V41.4591ZM38.3895 37.7638C38.6175 39.6169 38.3359 41.0575 37.6806 41.4403C37.5358 41.5275 37.3464 41.5662 37.1234 41.5662C36.119 41.5662 34.6298 40.766 33.0483 39.3056C33.7275 38.5937 34.4067 37.7836 35.0521 36.8863C36.0914 36.7799 37.122 36.6016 38.1367 36.3529C38.2487 36.8427 38.335 37.3127 38.3895 37.7638V37.7638ZM40.2565 34.5286C39.84 34.708 39.384 34.8686 38.913 35.0184C38.6165 34.0103 38.2521 33.0235 37.8224 32.0647C38.2685 31.0564 38.6265 30.0718 38.8981 29.1259C39.379 29.2756 39.8341 29.4412 40.2614 29.6207C41.9787 30.3524 43.0892 31.3132 43.0892 32.0746C43.0842 32.8361 41.9737 33.8018 40.2565 34.5286V34.5286Z" fill="#4ABDC8"/>
<path d="M32.2629 34.2919C32.8509 34.2919 33.4147 34.0583 33.8305 33.6425C34.2463 33.2268 34.4798 32.6629 34.4798 32.0749C34.4798 31.4869 34.2463 30.923 33.8305 30.5072C33.4147 30.0915 32.8509 29.8579 32.2629 29.8579C31.6749 29.8579 31.111 30.0915 30.6952 30.5072C30.2795 30.923 30.0459 31.4869 30.0459 32.0749C30.0459 32.6629 30.2795 33.2268 30.6952 33.6425C31.111 34.0583 31.6749 34.2919 32.2629 34.2919V34.2919Z" fill="#4ABDC8"/>
</g>
<defs>
<linearGradient id="paint0_linear_663_87" x1="0.625488" y1="0.739746" x2="63.9122" y2="64.0265" gradientUnits="userSpaceOnUse">
<stop stop-color="white"/>
<stop offset="0.765625" stop-color="white" stop-opacity="0"/>
</linearGradient>
<linearGradient id="paint1_linear_663_87" x1="10.2451" y1="10.3589" x2="54.2927" y2="54.4064" gradientUnits="userSpaceOnUse">
<stop stop-color="white"/>
<stop offset="0.828125" stop-color="white" stop-opacity="0"/>
</linearGradient>
<clipPath id="clip0_663_87">
<rect width="23.7958" height="23.7958" fill="white" transform="translate(20.3711 20.4844)"/>
</clipPath>
</defs>
</svg>
