<svg width="64" height="65" viewBox="0 0 64 65" fill="none" xmlns="http://www.w3.org/2000/svg">
<path d="M29.7814 2.30827C31.3484 1.40353 33.2791 1.40353 34.8462 2.30827L57.1853 15.2058C58.7524 16.1105 59.7177 17.7826 59.7177 19.592V45.3871C59.7177 47.1965 58.7524 48.8686 57.1853 49.7733L34.8462 62.6708C33.2791 63.5756 31.3484 63.5756 29.7814 62.6708L7.44221 49.7733C5.87516 48.8686 4.90982 47.1965 4.90982 45.3871V19.592C4.90982 17.7825 5.87516 16.1105 7.44221 15.2058L29.7814 2.30827Z" stroke="url(#paint0_linear_663_100)" stroke-opacity="0.3" stroke-width="1.01296"/>
<path d="M30.5513 11.4829C31.6419 10.8532 32.9857 10.8532 34.0764 11.4829L49.6244 20.4596C50.7151 21.0893 51.387 22.253 51.387 23.5124V41.4658C51.387 42.7252 50.7151 43.8889 49.6244 44.5186L34.0764 53.4953C32.9857 54.125 31.6419 54.125 30.5513 53.4953L15.0032 44.5186C13.9125 43.8889 13.2407 42.7252 13.2407 41.4658V23.5124C13.2407 22.253 13.9125 21.0893 15.0032 20.4596L30.5513 11.4829Z" fill="url(#paint1_linear_663_100)" fill-opacity="0.2"/>
<g clip-path="url(#clip0_663_100)">
<path d="M43.666 34.2879C42.5622 34.2936 41.6028 34.5594 40.7996 34.9524C40.5048 34.3687 40.21 33.8487 40.1581 33.4672C40.1002 33.0223 40.031 32.7506 40.1002 32.2189C40.1696 31.6872 40.4817 30.9301 40.4759 30.8723C40.4702 30.8146 40.4065 30.5429 39.7708 30.5372C39.1351 30.5314 38.5861 30.6585 38.5225 30.8261C38.4589 30.9937 38.3376 31.3751 38.2567 31.768C38.1469 32.3461 36.9853 34.4091 36.3208 35.4898C36.1069 35.0681 35.922 34.6981 35.8814 34.4034C35.8237 33.9585 35.7543 33.6868 35.8237 33.1551C35.8931 32.6234 36.2052 31.8664 36.1993 31.8085C36.1935 31.7508 36.1299 31.4791 35.4943 31.4734C34.8585 31.4676 34.3094 31.5948 34.246 31.7623C34.1824 31.93 34.113 32.3229 33.9801 32.7044C33.8471 33.0858 32.3041 36.5303 31.8996 37.4201C31.7361 37.7803 31.5646 38.1368 31.3853 38.4893C31.3853 38.4893 31.3794 38.5067 31.3621 38.5356C31.3057 38.6461 31.248 38.7559 31.1888 38.865V38.8707C31.1021 39.0269 31.0096 39.1712 30.9634 39.1712C30.9287 39.1712 30.8651 38.7552 30.9749 38.1888C31.2061 36.9926 31.7551 35.1317 31.7494 35.0681C31.7494 35.0334 31.8534 34.7098 31.3911 34.5421C30.9402 34.3745 30.7785 34.6519 30.738 34.6519C30.6976 34.6519 30.6685 34.7502 30.6685 34.7502C30.6685 34.7502 31.1715 32.6581 29.7093 32.6581C28.7962 32.6581 27.5363 33.6579 26.9122 34.5594C26.2026 34.9456 25.4937 35.3328 24.7854 35.7211C24.4446 35.9118 24.092 36.1026 23.7626 36.2817C23.7394 36.2586 23.7163 36.2296 23.6932 36.2066C21.9247 34.3168 18.6538 32.9817 18.7925 30.4448C18.8445 29.5201 19.1623 27.0928 25.0744 24.1454C29.9404 21.747 33.8126 22.4116 34.4829 23.8853C35.4422 25.989 32.4082 29.8957 27.3803 30.462C25.4616 30.6759 24.456 29.9361 24.2018 29.6587C23.9359 29.3697 23.8954 29.3524 23.7971 29.4103C23.6354 29.497 23.7394 29.757 23.7971 29.9072C23.9475 30.3001 24.5658 30.9937 25.6118 31.3347C26.5365 31.6352 28.7846 31.8028 31.5066 30.751C34.5522 29.572 36.9333 26.2952 36.234 23.5502C35.5347 20.7646 30.9113 19.8457 26.5365 21.4002C23.9359 22.3251 21.1156 23.7813 19.0872 25.6769C16.6772 27.9307 16.2958 29.8899 16.4518 30.7106C17.0125 33.6232 21.029 35.5188 22.6356 36.9232C22.5547 36.9694 22.4794 37.0099 22.416 37.0446C21.6126 37.4433 18.5497 39.0441 17.7868 40.7374C16.92 42.6561 17.9256 44.0317 18.5902 44.2164C20.6534 44.7887 22.7743 43.76 23.9128 42.0608C25.0513 40.3618 24.9126 38.1541 24.3867 37.1428C24.3809 37.1312 24.3752 37.1196 24.3635 37.1081C24.5716 36.9867 24.7854 36.8596 24.9935 36.7382C25.3759 36.5122 25.7633 36.2944 26.1552 36.0851C25.9586 36.6226 25.8141 37.2641 25.7448 38.1888C25.658 39.2753 26.103 40.6854 26.6867 41.2401C26.9469 41.483 27.2531 41.4887 27.4497 41.4887C28.1316 41.4887 28.4379 40.9223 28.7789 40.252C29.1949 39.4314 29.5706 38.4778 29.5706 38.4778C29.5706 38.4778 29.1025 41.0553 30.374 41.0553C30.8362 41.0553 31.3043 40.4542 31.5124 40.148V40.1537C31.5124 40.1537 31.524 40.1363 31.5471 40.0959C31.5934 40.0208 31.6222 39.9745 31.6222 39.9745V39.9631C31.8072 39.6393 32.2233 38.9054 32.8417 37.686C33.6392 36.1141 34.4078 34.1492 34.4078 34.1492C34.4078 34.1492 34.4772 34.6288 34.7141 35.4264C34.8529 35.8945 35.1417 36.4088 35.3729 36.9058C35.188 37.1659 35.0724 37.3103 35.0724 37.3103L35.0782 37.3162C34.9279 37.5126 34.7661 37.7264 34.5869 37.9346C33.957 38.6858 33.2058 39.547 33.1017 39.7954C32.9802 40.0901 33.0092 40.304 33.2405 40.4774C33.408 40.6046 33.7085 40.6218 34.0148 40.6046C34.5812 40.564 34.9799 40.4254 35.1764 40.3387C35.4827 40.2289 35.841 40.0612 36.1762 39.8127C36.7946 39.3562 37.1701 38.7031 37.1356 37.8421C37.1182 37.3682 36.9622 36.8943 36.7714 36.4492C36.8293 36.3684 36.8812 36.2875 36.9391 36.2066C37.9157 34.7791 38.6729 33.2129 38.6729 33.2129C38.6729 33.2129 38.7423 33.6925 38.9791 34.4902C39.0947 34.8947 39.3317 35.3339 39.5397 35.7615C38.6208 36.5071 38.0544 37.3739 37.8522 37.9403C37.4882 38.9922 37.7712 39.466 38.3087 39.5758C38.5514 39.6278 38.8982 39.5122 39.1525 39.4024C39.4761 39.2984 39.8576 39.1193 40.2217 38.8533C40.8401 38.3969 41.4353 37.7611 41.4006 36.9001C41.3832 36.5071 41.2792 36.1198 41.1347 35.7442C41.9149 35.4207 42.9205 35.2415 44.2034 35.3917C46.9544 35.7153 47.4976 37.4317 47.3935 38.1542C47.2895 38.8765 46.7116 39.2695 46.521 39.3909C46.3302 39.5123 46.2667 39.5527 46.284 39.6393C46.3071 39.7665 46.3996 39.7608 46.5614 39.7376C46.7869 39.6972 48.0063 39.1539 48.0582 37.8247C48.145 36.1256 46.5267 34.2705 43.666 34.2879V34.2879ZM22.4449 41.4425C21.5317 42.4365 20.2604 42.8121 19.7113 42.4944C19.1219 42.1533 19.353 40.6854 20.4742 39.6336C21.1561 38.9922 22.0345 38.3968 22.6183 38.0328C22.7511 37.9518 22.9477 37.8363 23.1846 37.6918C23.225 37.6686 23.2482 37.6571 23.2482 37.6571L23.3869 37.5704C23.7971 39.073 23.4043 40.3965 22.4449 41.4425V41.4425ZM29.091 36.9232C28.7731 37.6976 28.1085 39.6799 27.704 39.5701C27.3572 39.4776 27.1433 37.975 27.6346 36.4898C27.8831 35.7442 28.4089 34.8542 28.7153 34.5075C29.2123 33.9526 29.7613 33.7676 29.8942 33.9932C30.0619 34.2879 29.2874 36.4377 29.091 36.9232V36.9232ZM34.5754 39.5469C34.4424 39.6163 34.3154 39.6625 34.2575 39.6278C34.2171 39.6046 34.3154 39.5122 34.3154 39.5122C34.3154 39.5122 35.0031 38.7725 35.2746 38.4373C35.4308 38.2409 35.6156 38.0097 35.8122 37.7496V37.8247C35.8122 38.709 34.9568 39.3042 34.5753 39.5469H34.5754ZM38.8057 38.5818C38.7074 38.5124 38.7248 38.2813 39.0542 37.5588C39.1814 37.2756 39.4818 36.8018 39.9963 36.3452C40.054 36.5302 40.0945 36.7094 40.0887 36.8769C40.0829 37.9924 39.2855 38.4084 38.8057 38.5818Z" fill="#CD6799"/>
</g>
<defs>
<linearGradient id="paint0_linear_663_100" x1="0.67041" y1="0.846191" x2="63.9571" y2="64.1329" gradientUnits="userSpaceOnUse">
<stop stop-color="white"/>
<stop offset="0.765625" stop-color="white" stop-opacity="0"/>
</linearGradient>
<linearGradient id="paint1_linear_663_100" x1="10.29" y1="10.4653" x2="54.3376" y2="54.5129" gradientUnits="userSpaceOnUse">
<stop stop-color="white"/>
<stop offset="0.828125" stop-color="white" stop-opacity="0"/>
</linearGradient>
<clipPath id="clip0_663_100">
<rect width="31.7277" height="23.7958" fill="white" transform="translate(16.3652 20.5913)"/>
</clipPath>
</defs>
</svg>
