<svg width="64" height="65" viewBox="0 0 64 65" fill="none" xmlns="http://www.w3.org/2000/svg">
<path d="M29.4635 2.30827C31.0306 1.40353 32.9612 1.40353 34.5283 2.30827L56.8675 15.2058C58.4345 16.1105 59.3998 17.7826 59.3998 19.592V45.3871C59.3998 47.1965 58.4345 48.8686 56.8675 49.7733L34.5283 62.6708C32.9612 63.5756 31.0306 63.5756 29.4635 62.6708L7.12434 49.7733C5.55729 48.8686 4.59195 47.1965 4.59195 45.3871V19.592C4.59195 17.7825 5.55729 16.1105 7.12434 15.2058L29.4635 2.30827Z" stroke="url(#paint0_linear_663_109)" stroke-opacity="0.3" stroke-width="1.01296"/>
<path d="M30.2329 11.4829C31.3236 10.8532 32.6673 10.8532 33.758 11.4829L49.3061 20.4596C50.3967 21.0893 51.0686 22.253 51.0686 23.5124V41.4658C51.0686 42.7252 50.3967 43.8889 49.3061 44.5186L33.758 53.4953C32.6673 54.125 31.3236 54.125 30.2329 53.4953L14.6849 44.5186C13.5942 43.8889 12.9223 42.7252 12.9223 41.4658V23.5124C12.9223 22.253 13.5942 21.0893 14.6849 20.4596L30.2329 11.4829Z" fill="url(#paint1_linear_663_109)" fill-opacity="0.2"/>
<g clip-path="url(#clip0_663_109)">
<path d="M29.4034 33.1162L20.4863 42.0332C20.0563 42.4633 19.359 42.4633 18.929 42.0332L17.8889 40.9932C17.4596 40.5639 17.4588 39.868 17.8871 39.4377L24.9541 32.3375L17.8872 25.2374C17.4588 24.807 17.4597 24.1112 17.889 23.6819L18.929 22.6419C19.3591 22.2118 20.0563 22.2118 20.4863 22.6419L29.4034 31.5589C29.8334 31.9889 29.8334 32.6861 29.4034 33.1162ZM46.9315 41.5141V40.0458C46.9315 39.4377 46.4385 38.9447 45.8303 38.9447H31.8819C31.2737 38.9447 30.7807 39.4377 30.7807 40.0458V41.5141C30.7807 42.1223 31.2737 42.6153 31.8819 42.6153H45.8303C46.4385 42.6153 46.9315 42.1223 46.9315 41.5141Z" fill="white"/>
</g>
<defs>
<linearGradient id="paint0_linear_663_109" x1="0.352539" y1="0.846191" x2="63.6393" y2="64.1329" gradientUnits="userSpaceOnUse">
<stop stop-color="white"/>
<stop offset="0.765625" stop-color="white" stop-opacity="0"/>
</linearGradient>
<linearGradient id="paint1_linear_663_109" x1="9.97168" y1="10.4653" x2="54.0192" y2="54.5129" gradientUnits="userSpaceOnUse">
<stop stop-color="white"/>
<stop offset="0.828125" stop-color="white" stop-opacity="0"/>
</linearGradient>
<clipPath id="clip0_663_109">
<rect width="29.365" height="23.492" fill="white" transform="translate(17.5664 20.5913)"/>
</clipPath>
</defs>
</svg>
