<svg width="50" height="54" viewBox="0 0 50 54" fill="none" xmlns="http://www.w3.org/2000/svg">
<rect width="50" height="54" rx="5" fill="#1A1A1A"/>
<g clip-path="url(#clip0_590_131)">
<path d="M39.0964 20.0513L25.5463 14.5757L12 20.0513V14.5757L25.5482 9.1001L39.0984 14.5757V20.0513H39.0964Z" fill="#A435F0"/>
<path d="M12 24.6494H19.0971V36.7198C19.0971 39.8383 22.4239 41.3584 25.5482 41.3584C28.6995 41.3584 32.0012 39.7978 32.0012 36.6779V24.6494H39.0984V37.0073C39.0984 39.8801 37.8081 42.0968 35.2277 43.6169C32.6454 45.1357 29.4208 45.8755 25.4884 45.8755C21.5599 45.8755 18.3334 45.137 15.8128 43.6169C13.2902 42.0982 12 39.9638 12 37.1302V24.6494Z" fill="#F7F7F7"/>
</g>
<defs>
<clipPath id="clip0_590_131">
<rect width="27" height="37.8" fill="white" transform="translate(12 9.1001)"/>
</clipPath>
</defs>
</svg>
