<svg width="50" height="54" viewBox="0 0 50 54" fill="none" xmlns="http://www.w3.org/2000/svg">
<rect width="50" height="54" rx="5" fill="#1A1A1A"/>
<path d="M17.9619 32.5718L8.23319 37.52C7.75495 37.763 7.75495 38.5311 8.23319 38.7741L23.9389 46.7575C24.5734 47.0808 25.3012 47.0808 25.9357 46.7575L41.6414 38.7741C42.1196 38.5311 42.1196 37.763 41.6414 37.52L31.9128 32.5718L24.9393 36.1178L17.9619 32.5718Z" fill="url(#paint0_linear_589_414)"/>
<path d="M27.448 23.6966C26.0342 24.4152 25.0891 25.9328 24.9539 27.6544C24.9424 27.7964 24.9348 27.9385 24.9348 28.0826V29.2893C25.2759 29.2893 25.6169 29.3717 25.9333 29.5344L31.9103 32.5716L41.639 27.6234C42.1172 27.3805 42.1172 26.6124 41.639 26.3694L31.9103 21.4253L31.8208 21.4706L27.448 23.6966Z" fill="url(#paint1_linear_589_414)"/>
<path d="M41.6391 15.2259L25.9353 7.24246C25.3008 6.91918 24.573 6.91918 23.9385 7.24246L7 15.8519L17.9614 21.4261L18.1977 21.5455L17.9614 21.4241L23.9385 18.3868C24.573 18.0635 25.3008 18.0635 25.9353 18.3868L31.9104 21.4261L31.8209 21.4714L31.9104 21.4261L41.6391 16.4779C42.1193 16.2349 42.1173 15.4689 41.6391 15.2259Z" fill="url(#paint2_linear_589_414)"/>
<path d="M24.8887 27.3643C24.9194 27.599 24.9367 27.8399 24.9367 28.0829C24.9367 27.9388 24.9444 27.7966 24.9559 27.6546C24.9444 27.7966 24.9367 27.9388 24.9367 28.0829C24.9367 27.8399 24.9194 27.6011 24.8887 27.3643Z" fill="url(#paint3_linear_589_414)"/>
<path d="M25.9333 29.5326C25.6169 29.372 25.2759 29.2876 24.9348 29.2876V36.1158L31.9083 32.5699L26.5315 29.8374L25.9333 29.5326Z" fill="#0688AC"/>
<path d="M26.5336 29.8395L31.9104 32.5721L25.9333 29.5327L26.5336 29.8395Z" fill="#0688AC"/>
<path d="M24.9368 29.2891C24.5958 29.2891 24.2547 29.3714 23.9385 29.534L23.7651 29.6226L17.9614 32.5713L24.935 36.1172V29.2891H24.9368Z" fill="#032CAB"/>
<path d="M24.9369 29.2892V28.0825C24.9369 27.8395 24.9197 27.6006 24.8892 27.3639C24.6759 25.7639 23.7594 24.3739 22.4276 23.6965L18.1996 21.5467L17.9633 21.4272L15.3835 22.7348L7 26.9973L17.9614 32.5715L23.9385 29.5343C24.2547 29.3716 24.5958 29.2892 24.9369 29.2892Z" fill="#003EBB"/>
<path d="M23.9385 29.5327L17.9614 32.5721L23.7651 29.6234L23.9385 29.5327Z" fill="#003EBB"/>
<path d="M17.9614 21.4253L7 15.8511V26.9974L15.3835 22.7349L17.9614 21.4253Z" fill="#0950DC"/>
<path d="M24.9558 27.6544C25.0912 25.9329 26.0362 24.4153 27.4499 23.6967L31.8227 21.4707L27.4481 23.6926C26.0342 24.4112 25.0912 25.935 24.9558 27.6544Z" fill="#0858D6"/>
<path d="M24.8892 27.3636C24.9197 27.5983 24.9368 27.8392 24.9368 28.0823C24.9368 27.9381 24.9444 27.796 24.9559 27.6539C25.0912 25.9324 26.0362 24.4107 27.4462 23.692L31.8208 21.4702L31.9104 21.4249L25.9353 18.3855C25.3008 18.0622 24.573 18.0622 23.9385 18.3855L17.9614 21.4249L18.1977 21.5464L22.4237 23.6942C23.7575 24.3716 24.6739 25.7636 24.8892 27.3636Z" fill="#0858D6"/>
<path d="M24.8891 27.3641C24.6757 25.764 23.7593 24.37 22.4255 23.6925L18.1995 21.5469L22.4274 23.6987C23.7573 24.3741 24.6738 25.764 24.8891 27.3641Z" fill="#0858D6"/>
<defs>
<linearGradient id="paint0_linear_589_414" x1="24.9369" y1="7.10351" x2="24.9369" y2="40.7232" gradientUnits="userSpaceOnUse">
<stop offset="0.1192" stop-color="#3866FB"/>
<stop offset="1" stop-color="#31DC7D"/>
</linearGradient>
<linearGradient id="paint1_linear_589_414" x1="33.4674" y1="6.63478" x2="33.4674" y2="40.8731" gradientUnits="userSpaceOnUse">
<stop offset="0.1192" stop-color="#3866FB"/>
<stop offset="1" stop-color="#31DC7D"/>
</linearGradient>
<linearGradient id="paint2_linear_589_414" x1="24.4994" y1="6.90223" x2="24.4994" y2="40.7149" gradientUnits="userSpaceOnUse">
<stop offset="0.1192" stop-color="#3866FB"/>
<stop offset="1" stop-color="#31DC7D"/>
</linearGradient>
<linearGradient id="paint3_linear_589_414" x1="24.9214" y1="6.90159" x2="24.9214" y2="40.7144" gradientUnits="userSpaceOnUse">
<stop offset="0.1192" stop-color="#3866FB"/>
<stop offset="1" stop-color="#31DC7D"/>
</linearGradient>
</defs>
</svg>
