<svg width="65" height="65" viewBox="0 0 65 65" fill="none" xmlns="http://www.w3.org/2000/svg">
<path d="M30.0541 2.20182C31.6211 1.29709 33.5518 1.29709 35.1189 2.20182L57.458 15.0993C59.0251 16.0041 59.9904 17.6761 59.9904 19.4856V45.2806C59.9904 47.0901 59.0251 48.7621 57.458 49.6669L35.1189 62.5644C33.5518 63.4691 31.6211 63.4691 30.0541 62.5644L7.71491 49.6669C6.14786 48.7621 5.18252 47.0901 5.18252 45.2806V19.4856C5.18252 17.6761 6.14787 16.0041 7.71492 15.0993L30.0541 2.20182Z" stroke="url(#paint0_linear_663_121)" stroke-opacity="0.3" stroke-width="1.01296"/>
<path d="M30.824 11.3765C31.9146 10.7468 33.2584 10.7468 34.3491 11.3765L49.8971 20.3532C50.9878 20.9829 51.6597 22.1466 51.6597 23.406V41.3593C51.6597 42.6187 50.9878 43.7825 49.8971 44.4122L34.3491 53.3888C33.2584 54.0185 31.9146 54.0185 30.824 53.3888L15.2759 44.4122C14.1852 43.7825 13.5134 42.6187 13.5134 41.3593V23.406C13.5134 22.1466 14.1852 20.9829 15.2759 20.3532L30.824 11.3765Z" fill="url(#paint1_linear_663_121)" fill-opacity="0.2"/>
<g clip-path="url(#clip0_663_121)">
<path d="M40.2312 20.9912H45.4967L32.3331 44.2596L19.1694 20.9912H29.2396L32.3331 26.3868L35.3607 20.9912H40.2312Z" fill="#41B883"/>
<path d="M19.1694 20.9912L32.3331 44.2596L45.4967 20.9912H40.2312L32.3331 34.9523L24.3691 20.9912H19.1694Z" fill="#41B883"/>
<path d="M24.3691 20.9912L32.3331 35.0197L40.2313 20.9912H35.3608L32.3331 26.3868L29.2397 20.9912H24.3691Z" fill="#35495E"/>
</g>
<defs>
<linearGradient id="paint0_linear_663_121" x1="0.943115" y1="0.739746" x2="64.2298" y2="64.0265" gradientUnits="userSpaceOnUse">
<stop stop-color="white"/>
<stop offset="0.765625" stop-color="white" stop-opacity="0"/>
</linearGradient>
<linearGradient id="paint1_linear_663_121" x1="10.5627" y1="10.3589" x2="54.6103" y2="54.4064" gradientUnits="userSpaceOnUse">
<stop stop-color="white"/>
<stop offset="0.828125" stop-color="white" stop-opacity="0"/>
</linearGradient>
<clipPath id="clip0_663_121">
<rect width="26.3273" height="23.2895" fill="white" transform="translate(19.1694 20.9912)"/>
</clipPath>
</defs>
</svg>
