<svg width="65" height="65" viewBox="0 0 65 65" fill="none" xmlns="http://www.w3.org/2000/svg">
<path d="M29.9481 2.20182C31.5152 1.29709 33.4459 1.29709 35.0129 2.20182L57.3521 15.0993C58.9191 16.0041 59.8845 17.6761 59.8845 19.4856V45.2806C59.8845 47.0901 58.9191 48.7621 57.3521 49.6669L35.0129 62.5644C33.4459 63.4691 31.5152 63.4691 29.9481 62.5644L7.60896 49.6669C6.04191 48.7621 5.07656 47.0901 5.07656 45.2806V19.4856C5.07656 17.6761 6.04191 16.0041 7.60896 15.0993L29.9481 2.20182Z" stroke="url(#paint0_linear_663_124)" stroke-opacity="0.3" stroke-width="1.01296"/>
<path d="M30.718 11.3765C31.8087 10.7468 33.1524 10.7468 34.2431 11.3765L49.7912 20.3532C50.8818 20.9829 51.5537 22.1466 51.5537 23.406V41.3593C51.5537 42.6187 50.8818 43.7825 49.7912 44.4122L34.2431 53.3888C33.1524 54.0185 31.8087 54.0185 30.718 53.3888L15.17 44.4122C14.0793 43.7825 13.4074 42.6187 13.4074 41.3593V23.406C13.4074 22.1466 14.0793 20.9829 15.17 20.3532L30.718 11.3765Z" fill="url(#paint1_linear_663_124)" fill-opacity="0.2"/>
<path d="M39.8216 44.4498H25.6453C24.3921 44.4498 23.1901 43.9519 22.304 43.0658C21.4178 42.1796 20.9199 40.9776 20.9199 39.7244V25.5482C20.9199 24.2949 21.4178 23.093 22.304 22.2068C23.1901 21.3206 24.3921 20.8228 25.6453 20.8228H39.8216C41.0748 20.8228 42.2767 21.3206 43.1629 22.2068C44.0491 23.093 44.547 24.2949 44.547 25.5482V39.7244C44.547 40.9776 44.0491 42.1796 43.1629 43.0658C42.2767 43.9519 41.0748 44.4498 39.8216 44.4498ZM25.6453 23.1855C25.0187 23.1855 24.4177 23.4344 23.9746 23.8775C23.5316 24.3206 23.2826 24.9215 23.2826 25.5482V39.7244C23.2826 40.351 23.5316 40.952 23.9746 41.3951C24.4177 41.8382 25.0187 42.0871 25.6453 42.0871H39.8216C40.4482 42.0871 41.0491 41.8382 41.4922 41.3951C41.9353 40.952 42.1843 40.351 42.1843 39.7244V25.5482C42.1843 24.9215 41.9353 24.3206 41.4922 23.8775C41.0491 23.4344 40.4482 23.1855 39.8216 23.1855H25.6453ZM37.1777 38.2784C36.6668 38.299 36.1571 38.2153 35.6796 38.0326C35.2021 37.8498 34.7669 37.5717 34.4003 37.2152C33.6329 36.3403 33.2393 35.1993 33.304 34.0374C33.2803 32.908 33.6831 31.8113 34.4322 30.9658C34.8238 30.5518 35.2986 30.2253 35.8253 30.0076C36.352 29.79 36.9187 29.6862 37.4884 29.703H37.7636V27.3403C37.7636 27.156 37.9137 27.006 38.098 27.0048H39.6538C39.7402 27.0015 39.8246 27.0311 39.8901 27.0875C39.922 27.1177 39.9472 27.1545 39.9639 27.1952C39.9806 27.2359 39.9885 27.2797 39.9869 27.3237V36.3953C39.981 36.7084 39.9976 37.0215 40.0342 37.3321V37.3617C40.036 37.4368 40.0127 37.5104 39.968 37.5708C39.9295 37.6182 39.8806 37.6562 39.8251 37.6818C39.0052 38.0732 38.1086 38.2774 37.2001 38.2796L37.1777 38.2784V38.2784ZM36.0956 32.2346L36.0897 32.2417C35.7155 32.7341 35.5272 33.3429 35.5581 33.9606C35.5095 34.6042 35.6954 35.2436 36.0814 35.761C36.3968 36.1083 36.8516 36.2973 37.3206 36.2737C37.4695 36.276 37.6183 36.2607 37.7636 36.2288V31.6817C37.6534 31.6581 37.5409 31.6466 37.4281 31.6475C37.1761 31.6407 36.9257 31.6902 36.6952 31.7924C36.4647 31.8946 36.2598 32.0469 36.0956 32.2382V32.2346V32.2346ZM32.9992 38.1414H31.2851C31.197 38.1471 31.1093 38.1252 31.0343 38.0786C30.9593 38.0319 30.9008 37.963 30.8669 37.8815L30.6188 37.3617L30.6129 37.3487L30.3707 36.8655L30.2951 36.7084C29.9183 35.9311 29.5296 35.1301 29.1398 34.3055C28.5977 35.5065 28.0397 36.7001 27.4658 37.8862V37.898L27.4599 37.9086C27.4203 37.9749 27.3652 38.0305 27.2992 38.0705C27.2322 38.1105 27.1552 38.131 27.0771 38.1296H25.4575C25.3898 38.1329 25.3228 38.114 25.2667 38.0759C25.2107 38.0377 25.1686 37.9823 25.1468 37.9181C25.1326 37.8692 25.1298 37.8177 25.1386 37.7675C25.1474 37.7173 25.1676 37.6698 25.1976 37.6287L27.8308 32.5949L25.2838 27.4986C25.2496 27.449 25.2301 27.3907 25.2275 27.3305C25.225 27.2703 25.2396 27.2106 25.2697 27.1583C25.2985 27.1109 25.3391 27.0718 25.3876 27.0447C25.436 27.0176 25.4906 27.0034 25.5461 27.0036H27.2402C27.3224 26.9992 27.4043 27.018 27.4764 27.0579C27.5497 27.1028 27.6064 27.1702 27.6371 27.2505C28.2703 28.5795 28.8043 29.7313 29.2709 30.7532C29.8509 29.4537 30.4676 28.133 30.8811 27.2576L30.887 27.2446L30.8941 27.2328V27.2198C30.9237 27.1692 30.9607 27.1234 31.0039 27.0839C31.077 27.0229 31.1698 26.9906 31.265 26.993H32.8516C32.9122 26.9913 32.9721 27.0073 33.0239 27.039C33.0756 27.0706 33.1172 27.1166 33.1434 27.1713C33.1642 27.2215 33.1727 27.2759 33.1679 27.33C33.1632 27.3841 33.1455 27.4363 33.1162 27.482L30.568 32.4284L33.2639 37.6263C33.2922 37.6714 33.31 37.7224 33.316 37.7754C33.3219 37.8284 33.3158 37.882 33.2981 37.9323C33.2759 37.9934 33.2351 38.0462 33.1816 38.0832C33.1281 38.1203 33.0643 38.1398 32.9992 38.139V38.1414V38.1414Z" fill="#B03AF0"/>
<defs>
<linearGradient id="paint0_linear_663_124" x1="0.837158" y1="0.739746" x2="64.1239" y2="64.0265" gradientUnits="userSpaceOnUse">
<stop stop-color="white"/>
<stop offset="0.765625" stop-color="white" stop-opacity="0"/>
</linearGradient>
<linearGradient id="paint1_linear_663_124" x1="10.4568" y1="10.3589" x2="54.5043" y2="54.4064" gradientUnits="userSpaceOnUse">
<stop stop-color="white"/>
<stop offset="0.828125" stop-color="white" stop-opacity="0"/>
</linearGradient>
</defs>
</svg>
